# xmcd
#
# Track frame offsets:
#	150
#	13767
#	33483
#	46750
#	62397
#	74061
#	89477
#	102344
#	114410
#	132326
#	143392
#	159858
#
# Disc length: 2204 seconds
#
# Revision: 0
# Processed by: cddbd v1.5.1PL2 Copyright (c) Steve Scherf et al.
# Submitted via: dBpowerAMP V4.0
#
DISCID=99089a0c
DTITLE=Matt Texter - Take the Backroads
DYEAR=2005
DGENRE=Blues
TTITLE0=The Train That Carried My Girl From Town
TTITLE1=Midnight Special
TTITLE2=Mole in the Ground
TTITLE3=John the Revelator
TTITLE4=I Can't Feel at Home in This World Anymore
TTITLE5=Man of Constant Sorrow
TTITLE6=On the Banks of the Ohio
TTITLE7=Worried Man Blues
TTITLE8=If I Could Hear My Mother Pray Again
TTITLE9=John Henry
TTITLE10=You've Got to Move
TTITLE11=You Are My Sunshine
EXTD=
EXTT0=
EXTT1=
EXTT2=
EXTT3=
EXTT4=
EXTT5=
EXTT6=
EXTT7=
EXTT8=
EXTT9=
EXTT10=
EXTT11=
PLAYORDER=
